# xmcd
#
# Track frame offsets:
#	150
#	13003
#	24283
#	39182
#	52169
#	61740
#	72357
#	83423
#	95616
#	110657
#	120064
#	136710
#	148187
#	159975
#	172218
#	192650
#
# Disc length: 2753 seconds
#
# Revision: 0
# Processed by: cddbd v1.5.2PL0 Copyright (c) Steve Scherf et al.
# Submitted via: dBpowerAMP V4.0
#
DISCID=d10abf10
DTITLE=Various Artist - Johnny Cash: Roots and Branches
DYEAR=2006
DGENRE=Country
TTITLE0=Sister Rosetta Tharpe-/ There Are Strange Things Happenin' Every Day
TTITLE1=Jimmie Davis-/ I Was There When It Happened
TTITLE2=Gordon Jenkins-/ Crescent City Blues (From "The Second Dream - The Conductor" Suite)
TTITLE3=Warren Smith-/ Rock 'n Roll Ruby
TTITLE4=Roy Orbison-/ You're My Baby
TTITLE5=Ernest Tubb-/ So Doggone Lonesome
TTITLE6=Hank Williams-/ (I Heard) That Lonesome Whistle
TTITLE7=Jimmie Skinner-/ Doin' My Time
TTITLE8=Jimmie Rodgers-/ In The Jailhouse Now
TTITLE9=Anita Carter-/ Love's Ring Of Fire
TTITLE10=Peter LaFarge-/ The Ballad Of Ira Hayes
TTITLE11=The Kingston Trio-/ Jackson
TTITLE12=Roy Hogsed-/ Cocaine Blues
TTITLE13=Tim Hardin-/ If I Were A Carpenter
TTITLE14=Kris Kristofferson-/ Sunday Morning Comin' Down
TTITLE15=Bill Monroe And His Bluegrass Boys-/ Wayfaring Stranger
EXTD=
EXTT0=
EXTT1=
EXTT2=
EXTT3=
EXTT4=
EXTT5=
EXTT6=
EXTT7=
EXTT8=
EXTT9=
EXTT10=
EXTT11=
EXTT12=
EXTT13=
EXTT14=
EXTT15=
PLAYORDER=
